<svg version="1.2" xmlns="http://www.w3.org/2000/svg" viewBox="0 0 2048 2048" width="auto" height="1em">
	<title>QuickCTXLogo</title>
	<g id="Layer 1">
		<path fill-rule="evenodd" fill="currentColor" d="m974.8 1c-8.4 0.4-42 3.4-70.7 6.2-14.6 1.4-27.5 3.2-48.2 6.9-6.8 1.1-17.6 3-24 4.1-10.5 1.8-16.8 3.2-44.5 10.2-4.4 1.1-11 2.7-14.6 3.6-3.6 0.9-10.5 2.8-15.3 4.3-4.8 1.5-12.7 3.9-17.5 5.3-11.4 3.2-45.5 14.4-51.1 16.7-2.4 1-6.4 2.7-9 3.8-2.5 1.1-5.2 2-6 2-1.2 0-5.3 1.6-20 8-2.4 1-8.9 3.7-14.5 5.8-5.5 2.2-11.1 4.5-12.4 5.1-56.1 27.5-74.4 37-98.6 51.2-28.9 16.9-67.8 42.3-84.5 55.2-31.3 24.2-45.9 35.7-51.8 41-1.3 1.2-6.3 5.5-11.1 9.5-45.9 38.5-109.8 106.9-145.8 156.1-16.2 22.1-32.2 45.2-37.8 54.7-3.1 5.2-8.1 13.1-11.1 17.5-6.9 10.3-20.5 33.7-25.1 43-1.9 4-5 9.9-6.9 13.1-1.8 3.3-7.8 14.7-13.2 25.6-8.4 16.9-13.1 27.4-25.7 56.9-1.1 2.8-3 6.7-4 8.7-1 2-4.7 11.5-8.1 21.2-3.4 9.6-6.7 18.5-7.3 19.7-0.6 1.2-1.6 4.5-2.2 7.3-0.6 2.8-1.6 5.7-2.2 6.5-1.6 2-8.8 25.5-8.8 28.4 0 1.3-0.6 3-1.3 3.8-0.7 0.7-2.4 5.6-3.8 10.9-7.6 29-14.1 55.6-15.2 62.7-0.7 4.4-2.7 14.9-4.3 23.3-1.7 8.4-3.7 20.3-4.6 26.3-0.8 6-2.4 17.5-3.6 25.5-1.1 8-2.8 23.5-3.7 34.3-0.9 10.8-2.2 25.7-3 33.1-1.8 17.5-1.7 82.4 0.1 100.7 0.7 7.8 2 21.8 2.9 31 2.6 29.6 10.4 84.9 14.6 105.1 0.8 3.6 2.5 11.8 3.8 18.2 1.3 6.4 3.4 15.3 4.5 19.7 1.2 4.4 3 11.6 4 16 1.8 7.4 4 15.3 10.3 36.5 9 30.6 20.3 63.2 22.9 66.3 0.7 0.8 1.2 2.3 1.2 3.4 0 2.1 8.1 21.4 17 40.8 2.7 5.7 4.9 10.9 4.9 11.4 0 1.9 30.2 61.2 40.8 80.1 4.3 7.6 24.1 40.5 29.9 49.6 8.7 13.7 43 61 51.7 71.6 2.1 2.5 6.4 7.7 9.6 11.6 5.5 6.7 16.8 20.1 28.5 33.5 8.5 9.9 62.7 63.7 75.8 75.3 39 34.8 81.7 67.9 118.2 91.9 23.8 15.7 40.2 26.1 41.2 26.1 0.4 0 4.3 2.3 8.6 5.1 4.2 2.8 8.2 5.1 8.9 5.1 0.6 0 3.9 1.8 7.3 3.9 8.4 5.3 65.6 33.7 82.7 41.1 19.6 8.4 55.2 22.1 57.4 22.1 1 0 2.5 0.6 3.3 1.3 0.7 0.7 6.9 3.1 13.7 5.3 6.9 2.2 14.4 4.8 16.8 5.9 2.4 1 10 3.3 16.8 5.1 6.8 1.7 13.7 3.7 15.3 4.3 6.5 2.6 64.8 16.9 77.3 19 4 0.6 14.5 2.5 23.4 4.2 14.9 2.9 31.6 5.1 64.1 8.7 80.6 8.9 173.5 6.2 253.1-7.4 14.1-2.4 28.7-4.8 32.5-5.4 3.9-0.6 7.8-1.8 8.7-2.8 1.7-1.7-8.1-32.1-28-87.8-4.2-11.6-8.5-23.8-9.6-27-2.6-7.9-13.5-38.6-21-59-3.4-9.3-7.5-20.8-9.2-25.6-1.6-4.8-4.2-12.3-5.8-16.7-4-11-14.2-40.1-14.2-40.5-0.1-1-12.4-0.1-25.6 1.8-28.4 4-83.8 5.8-119.3 3.9-39.3-2.2-79.2-7.3-106-13.7-3.7-0.8-8.9-2-11.7-2.6-10.2-2.1-46.1-11.8-51.1-13.7-2.8-1.1-9-3.2-13.8-4.6-15.6-4.8-52.6-19.5-73.7-29.4-18.2-8.5-26.1-12.7-66.4-35.4-3.2-1.8-7.9-4.8-10.4-6.8-2.6-1.9-5.1-3.5-5.5-3.5-0.5 0-5.1-2.9-10.3-6.5-5.2-3.6-13.9-9.7-19.4-13.4-15.3-10.7-44.1-33.1-55.7-43.5-14-12.6-28.8-26.5-35.8-33.6-16.3-16.7-31.1-32.5-37.9-40.7-4-4.7-8.9-10.3-10.8-12.4-3.8-4.2-23.4-30.2-34.6-46.1-15.7-22-35.4-55.2-51.7-86.8-11.7-22.8-27.9-61.8-36.6-88.2-16.3-49.7-23.6-83.6-31.4-145.9-3.7-29.7-3.7-122.3 0-152.4 7.1-57.5 17.7-105.1 33.1-148.8 11.9-33.6 12.5-35.1 18.2-48.2 6.1-13.7 28.4-59.5 32.4-66.3 1.5-2.4 4.6-7.7 7-11.7 2.3-4 5.6-9.6 7.2-12.4 8.9-15.3 19.6-30.8 42.9-62 23.2-31.1 76.2-86.7 106.1-111.2 3.1-2.6 10.3-8.5 16-13.1 5.6-4.7 13.1-10.5 16.7-12.9 3.6-2.5 10.2-7 14.6-10.1 21.1-14.9 33.2-22.7 56.8-36.3 14.1-8.2 28.9-16.4 32.9-18.2 4-1.9 11.2-5.3 16-7.6 26.7-12.6 44.1-19.5 71.6-28.8 55.9-18.6 96.8-28 143.6-33 46.8-5 57.1-5.5 97.1-4.8 60.4 1 94.3 5.4 159.6 20.7 10.1 2.3 35.1 10 50.4 15.4 6.4 2.3 13.6 4.6 16 5.2 2.4 0.5 5 1.4 5.9 2 0.8 0.6 5.3 2.5 10.2 4.4 12.2 4.7 31.9 13.6 59 26.7 17.8 8.6 88.6 51.4 93.4 56.5 0.4 0.4 6.3 5 13.1 10.1 49.3 37.2 106.2 94.7 139.3 140.7 1.6 2.3 5.9 8.1 9.5 13.1 11.3 15.2 23.7 34.8 36.8 57.8 9.2 16 33.2 63.1 33.2 64.9 0 0.5 1.4 4 3.1 7.7 1.7 3.8 4 8.9 5 11.3 4 8.8 21.7 59.8 23.9 68.8 0.8 3.1 2.8 10.8 4.5 17.2 5.8 22 14.5 67.1 17.8 91.9 2.9 22.4 3.2 31.1 3.2 88.3 0 40.2-0.6 67.7-1.7 75.1-0.9 6.4-2.4 16.9-3.2 23.4-0.8 6.4-2.2 14.6-3 18.2-0.8 3.6-3.4 16.1-5.8 27.7-2.3 11.6-4.8 23.8-5.6 26.9-1.8 7-0.7 8.8 6.8 11.1 3 0.9 6.7 2.1 8.3 2.8 11.8 4.9 34.6 13.2 36.2 13.2 1 0 2.5 0.6 3.2 1.3 0.8 0.7 7.3 3.4 14.6 6 7.2 2.6 21 7.5 30.6 11 16.9 6 31.2 11.3 57.6 21.1 6.8 2.5 18.3 6.6 25.5 9 7.3 2.4 14.5 4.9 16.1 5.6 1.6 0.6 7.8 2.9 13.8 5.1 6.1 2.2 16.8 6.2 23.9 8.9 7.1 2.7 13.4 4.9 14.2 4.9 2 0 6.8-11.6 10.1-24.9 1.7-6.8 5-19.8 7.3-29.1 2.4-9.2 4.9-20.3 5.6-24.8 0.8-4.4 3-16.8 5.1-27.7 2-10.8 4.4-26 5.2-33.7 0.9-7.8 1.9-15 2.2-16.1 0.4-1.1 2.1-20.3 3.9-42.8 2.6-34.3 3-48.4 2.3-88.3-0.6-43.1-3.3-84-6.7-105-0.8-4.4-1.7-12-2.2-16.9-0.5-5-2.6-17.4-4.7-27.8-2-10.3-4.5-23.3-5.6-29-1.1-5.6-3.4-15.7-5.1-22.6-1.7-6.8-4-16.6-5.1-21.8-1.2-5.3-3.5-14.1-5.2-19.7-1.7-5.7-4-13.5-5.1-17.5-1.1-4.1-2.9-10.3-4.2-13.9-11.4-33.7-21.5-61.1-27.7-74.9-2.1-4.8-3.8-9.1-3.8-9.7 0-4.6-43.7-91.9-49-97.9-1.1-1.2-2-2.9-2-3.6 0-4.1-36.6-60.9-56.7-87.9-12.2-16.5-28-37-29.3-38.2-0.5-0.4-4.6-5.5-9.3-11.3-4.6-5.8-9.6-11.7-11-13.1-1.4-1.4-9.5-10.4-18-20.1-21.1-23.9-61.8-63.5-92.5-89.9-4-3.5-10.3-8.9-13.8-12-21.5-18.7-96.1-71.2-116.6-82-4.4-2.3-8.4-4.6-8.8-5-6-6.4-94.7-50.8-124-61.9-3.6-1.4-9.5-3.8-13.1-5.2-3.6-1.5-10.5-4.1-15.3-5.9-4.8-1.8-10.1-3.8-11.7-4.4-5-2.2-37.7-12.8-43.8-14.2-3.2-0.8-11.7-3.2-18.9-5.4-7.2-2.2-15.4-4.5-18.2-5.2-2.8-0.6-9.1-2.2-13.9-3.4-31.2-7.7-38.2-9.2-70.7-14.6-7.7-1.3-17.8-3-22.7-3.8-4.8-0.8-14.6-2.1-21.8-2.8-7.3-0.8-18.4-2.1-24.8-2.9-28.8-3.6-97.2-5.4-132.8-3.4zm68.3 1044.3c2.7 9 14.4 42.6 15.5 45 0.8 1.6 5.4 14.8 10.2 29.2 8.7 26.1 13 38.7 28.5 83.2 4.5 12.8 11.4 32.8 15.3 44.5 16.3 48 22.2 65 23.4 67.8 0.7 1.6 5.5 15.7 10.7 31.3 12.5 37.4 33.7 99.9 44 129.1 4.4 12.9 12.5 36.2 17.8 51.8 5.4 15.7 11.9 34.7 14.5 42.3 2.6 7.7 10.7 31 17.9 51.8 7.2 20.9 15.8 45.5 19.1 54.7 3.3 9.2 6.7 19.1 7.5 21.9 2 6.7 4.1 13 12.3 35.7 12.1 33.9 15.4 43.3 26.2 74.4 5.8 16.9 13.9 40.2 18.1 51.8 4.2 11.7 9.8 27.7 12.5 35.8 5.5 16.5 6.8 20.2 12.6 36 2.3 6.3 5.2 14.5 6.5 18.3 1.3 3.8 3.8 10.9 5.6 15.7 1.9 4.8 4.5 11.9 5.9 15.7 1.6 4.7 3.2 6.9 4.7 6.6 1.2-0.2 5.1-6 8.7-12.8 3.6-6.9 10.3-19.7 15-28.5 4.6-8.8 10.6-20 13.2-24.8q7-12.8 19-35c2.1-4 7.1-13.2 10.9-20.4 3.8-7.2 9.5-17.9 12.7-23.8 3.1-5.8 8.8-16.6 12.7-24 3.9-7.4 8.7-16.4 10.7-20 8.3-15.1 21.5-39.6 21.5-40.1 0-0.6 19.8-35.5 21.9-38.7 0.9-1.2 2.5-4.3 3.7-6.8 1.1-2.6 2.8-5.1 3.6-5.6 1.5-1 23.3 19.6 59.6 56.1 112 112.8 284.1 284.5 285.1 284.5 0.7 0 10.6-9.7 22-21.5 11.3-11.8 36.4-37.5 55.8-57.2 59.5-60.5 77.1-79.1 77.6-81.7 0.2-1.7-6.1-9.1-17.6-20.8-9.8-10.1-41.9-42.8-71.1-72.7-29.3-30-97.6-99-151.7-153.5-54.2-54.4-98.5-99.7-98.5-100.5 0-0.9 2-2.6 4.4-3.9 2.4-1.3 6.6-3.8 9.4-5.5 2.9-1.8 8.9-5.2 13.5-7.7 4.6-2.5 12.2-6.6 16.8-9.1 4.6-2.5 13.7-7.3 20.1-10.8 6.4-3.4 14.6-7.8 18.2-9.8 3.6-1.9 11.8-6.4 18.2-9.8 6.5-3.5 17-9.2 23.4-12.8 6.4-3.6 17.6-9.6 24.8-13.5 29.9-15.8 51.2-27.4 57.6-31.3 2.8-1.8 10.7-6.2 17.5-9.9 40.4-21.5 58.4-32 58.4-33.9 0-1-1.9-2.5-4.1-3.4-2.2-0.8-15.1-5.5-28.8-10.5-13.6-5-31-11.4-38.6-14.2-7.6-2.8-19.5-7-26.3-9.3-6.8-2.4-14.4-5.2-16.8-6.2-2.4-1.1-8.6-3.4-13.8-5.2-5.2-1.8-11.5-4.1-13.9-5.1-2.4-1-8.6-3.3-13.8-5.1-5.2-1.8-10.8-3.9-12.4-4.6-1.6-0.7-9.2-3.6-16.8-6.3-15.8-5.6-34.9-12.6-56.2-20.6-8-3-23.4-8.6-34.2-12.4-10.9-3.9-26.3-9.4-34.3-12.4-8.1-3-17.2-6.3-20.5-7.5-3.2-1.1-7.1-2.6-8.7-3.3-1.6-0.7-8.2-3.1-14.6-5.2-6.4-2.2-13-4.5-14.6-5.1-1.6-0.6-7.8-2.9-13.8-5.1-6.1-2.2-12.3-4.6-13.9-5.3-1.6-0.6-5.9-2.3-9.5-3.6-14.4-5.2-28.6-10.4-32.1-11.8-2-0.9-8.5-3.2-14.6-5.3-6-2.1-21.4-7.8-34.2-12.7-12.9-4.9-26-9.8-29.2-10.9-17.9-6-93.8-33.9-103.6-38-2.4-1-6-2.2-8-2.8-2-0.5-5-1.5-6.6-2.2-1.6-0.6-7.8-2.9-13.8-5.1-6-2.2-12.3-4.5-13.9-5.2-1.6-0.7-5.5-2.3-8.7-3.4-3.2-1.1-13.4-4.8-22.6-8.1-9.3-3.4-22.1-8-28.5-10.2-6.4-2.3-20.9-7.6-32.1-11.8-11.2-4.2-23-8.5-26.2-9.6-3.3-1-10.5-3.6-16.1-5.8-5.6-2.1-12.5-4.5-15.3-5.2-4.2-1.2-20.4-7-35.7-12.9-1.7-0.7-7.6-2.8-13.2-4.9-19.5-7-39.4-14.4-42.3-15.7-6.2-2.7-16.2-6-20.3-6.8-3.6-0.7-4.1-0.4-3.3 2z"/>
	</g>
</svg>