<svg version="1.2" xmlns="http://www.w3.org/2000/svg" viewBox="0 0 2048 2048" width="auto" height="1.5em">
	<title>QuickCTXLogo</title>
	<style>
		tspan { white-space:pre } 
		.s0 { fill: #3a91a5 } 
	</style>
	<g id="Layer 1">
		<path fill-rule="evenodd" class="s0" d="m975.4 45.8c-8.3 0.5-41.2 3.3-69.2 6.1-14.2 1.4-26.9 3.2-47.1 6.7-6.7 1.2-17.3 3-23.5 4.1-10.3 1.7-16.4 3.1-43.6 9.9-4.3 1.1-10.7 2.7-14.2 3.5-3.5 0.9-10.3 2.8-15 4.3-4.7 1.5-12.4 3.8-17.1 5.1-11.1 3.2-44.4 14.1-50 16.4-2.3 1-6.3 2.7-8.7 3.7-2.5 1.1-5.2 2-5.9 2-1.3 0-5.3 1.6-19.6 7.8-2.4 1-8.7 3.6-14.2 5.7-5.4 2.1-10.9 4.4-12.1 5-54.9 26.9-72.7 36.1-96.4 50-28.3 16.6-66.3 41.4-82.7 54-30.6 23.6-44.9 34.9-50.6 40.1-1.3 1.2-6.2 5.4-10.9 9.3-44.9 37.7-107.4 104.5-142.6 152.7-15.9 21.6-31.5 44.2-37 53.5-3.1 5.1-7.9 12.8-10.8 17.1-6.8 10.1-20.1 32.9-24.6 42.1-1.9 3.9-4.9 9.7-6.7 12.8-1.9 3.2-7.7 14.4-12.9 25-8.3 16.5-12.9 26.8-25.2 55.6-1.1 2.8-2.9 6.6-3.9 8.6-1 2-4.6 11.3-7.9 20.7-3.4 9.4-6.6 18.1-7.2 19.3-0.6 1.2-1.6 4.4-2.2 7.1-0.6 2.7-1.5 5.6-2.1 6.4-1.5 2-8.6 24.9-8.6 27.8 0 1.2-0.6 2.9-1.3 3.7-0.6 0.7-2.3 5.5-3.6 10.6-7.5 28.4-13.8 54.4-15 61.3-0.7 4.4-2.6 14.6-4.2 22.9-1.6 8.2-3.6 19.8-4.4 25.6-0.9 5.9-2.4 17.2-3.6 25-1.1 7.9-2.7 23-3.6 33.5-0.8 10.6-2.2 25.2-2.9 32.4-1.7 17.2-1.7 80.6 0 98.5 0.8 7.7 2.1 21.3 2.9 30.4 2.6 28.9 10.1 83 14.3 102.7 0.7 3.5 2.4 11.6 3.7 17.8 1.3 6.3 3.3 15 4.4 19.3 1.1 4.3 2.9 11.4 3.9 15.7 1.8 7.2 3.9 14.9 10.1 35.7 8.8 29.9 19.9 61.8 22.4 64.8 0.7 0.8 1.2 2.3 1.2 3.4 0 2 7.9 20.9 16.6 39.8 2.6 5.7 4.8 10.7 4.8 11.2 0 1.9 29.5 59.9 39.9 78.3 4.2 7.5 23.6 39.6 29.3 48.6 8.5 13.3 41.9 59.7 50.5 70 2 2.4 6.3 7.5 9.4 11.3 5.3 6.6 16.5 19.7 27.9 32.8 8.3 9.7 61.3 62.3 74.1 73.7 38.2 33.9 79.9 66.4 115.6 89.9 23.3 15.3 39.4 25.5 40.3 25.5 0.4 0 4.2 2.2 8.4 5 4.2 2.7 8.1 5 8.7 5 0.6 0 3.8 1.7 7.2 3.8 8.2 5.2 64.1 33 80.9 40.2 19.1 8.2 54 21.6 56.1 21.6 1 0 2.4 0.6 3.2 1.3 0.7 0.6 6.8 3 13.5 5.1 6.6 2.2 14 4.8 16.4 5.8 2.3 1 9.7 3.2 16.4 4.9 6.7 1.8 13.4 3.7 15 4.3 6.3 2.6 63.4 16.6 75.6 18.6 3.9 0.6 14.2 2.5 22.8 4.1 14.6 2.8 31 5 62.8 8.5 78.8 8.7 169.7 6.1 247.5-7.2 13.8-2.4 28.1-4.8 31.8-5.3 3.8-0.6 7.6-1.8 8.5-2.7 1.6-1.7-7.9-31.5-27.4-85.9-4.1-11.4-8.3-23.3-9.3-26.4-2.6-7.8-13.3-37.8-20.6-57.8-3.4-9-7.4-20.3-9-25-1.5-4.7-4.1-12.1-5.7-16.4-3.9-10.7-13.9-39.1-13.9-39.6 0-0.9-12.1-0.1-25 1.8-27.8 3.9-82 5.7-116.7 3.8-38.5-2.1-77.5-7.1-103.7-13.3-3.5-0.9-8.7-2-11.4-2.6-10-2.1-45.1-11.5-50-13.4-2.7-1.1-8.8-3.1-13.5-4.5-15.3-4.7-51.4-19.1-72.1-28.7-17.8-8.4-25.5-12.5-64.9-34.7-3.1-1.7-7.7-4.7-10.2-6.6-2.5-1.9-5-3.4-5.4-3.4-0.4 0-5-2.9-10.1-6.4-5.1-3.6-13.6-9.5-18.9-13.1-15-10.4-43.2-32.4-54.5-42.6-13.7-12.3-28.2-25.9-35-32.9-16-16.2-30.4-31.8-37.1-39.7-3.9-4.7-8.7-10.1-10.5-12.2-3.7-4-22.9-29.5-33.9-45-15.3-21.5-34.7-54-50.6-84.9-11.4-22.3-27.3-60.5-35.8-86.3-15.9-48.7-23.1-81.8-30.7-142.7-3.6-29.1-3.6-119.7 0-149.1 6.9-56.3 17.3-102.8 32.4-145.6 11.7-32.8 12.2-34.3 17.8-47 5.9-13.5 27.8-58.3 31.7-65 1.4-2.3 4.5-7.4 6.8-11.4 2.3-3.9 5.5-9.4 7.1-12.1 8.7-14.9 19.1-30.1 41.9-60.6 22.7-30.5 74.6-84.8 103.8-108.8 3.1-2.5 10.1-8.3 15.6-12.9 5.5-4.5 12.9-10.2 16.4-12.6 3.5-2.4 9.9-6.8 14.3-9.8 20.6-14.6 32.5-22.2 55.6-35.5 13.7-8 28.2-16 32.1-17.9 3.9-1.8 11-5.1 15.7-7.4 26.1-12.3 43.1-19.1 70-28.1 54.7-18.3 94.7-27.5 140.5-32.4 45.8-4.8 55.8-5.3 94.9-4.6 59.1 1 92.2 5.3 156.2 20.2 9.8 2.3 34.2 9.8 49.2 15.1 6.3 2.3 13.3 4.5 15.7 5.1 2.3 0.5 4.9 1.4 5.7 2 0.8 0.5 5.3 2.4 10 4.3 12 4.6 31.2 13.3 57.8 26.1 17.3 8.4 86.6 50.3 91.3 55.2 0.4 0.5 6.2 4.9 12.8 9.9 48.2 36.4 103.9 92.6 136.3 137.7 1.6 2.1 5.7 7.9 9.3 12.7 11 14.9 23.1 34.1 35.9 56.6 9 15.7 32.5 61.7 32.5 63.5 0 0.4 1.4 3.8 3.1 7.5 1.6 3.7 3.8 8.7 4.9 11 3.8 8.7 21.1 58.5 23.3 67.4 0.7 2.9 2.7 10.5 4.4 16.8 5.7 21.4 14.2 65.6 17.4 89.9 2.9 21.8 3.2 30.4 3.1 86.3 0 39.3-0.6 66.2-1.6 73.5-0.9 6.3-2.3 16.5-3.1 22.8-0.8 6.3-2.2 14.3-3 17.8-0.8 3.6-3.3 15.8-5.6 27.2-2.3 11.3-4.8 23.2-5.6 26.3-1.7 6.8-0.6 8.5 6.7 10.8 2.9 0.9 6.6 2.1 8.1 2.7 11.6 4.8 33.9 12.9 35.4 12.9 1 0 2.5 0.6 3.2 1.3 0.8 0.7 7.2 3.3 14.2 5.9 7.1 2.5 20.6 7.3 30 10.7 16.5 5.9 30.5 11.1 56.3 20.7 6.7 2.4 17.9 6.4 25 8.8 7.1 2.4 14.1 4.8 15.7 5.5 1.6 0.6 7.7 2.9 13.6 5 5.8 2.1 16.3 6 23.3 8.7 6.9 2.6 13.1 4.8 13.8 4.8 2.1 0 6.7-11.4 9.9-24.4 1.7-6.6 4.9-19.4 7.2-28.4 2.3-9 4.8-19.9 5.5-24.3 0.7-4.3 2.9-16.5 4.9-27.1 2-10.6 4.3-25.4 5.2-33 0.8-7.6 1.8-14.6 2.1-15.7 0.4-1.1 2.1-19.9 3.8-41.9 2.5-33.5 2.9-47.3 2.3-86.3-0.7-42.1-3.2-82.2-6.6-102.7-0.7-4.3-1.7-11.8-2.2-16.6-0.5-4.8-2.5-17-4.5-27.1-2-10.1-4.5-22.9-5.5-28.4-1.1-5.5-3.3-15.4-5-22.1-1.6-6.7-3.9-16.3-5-21.4-1.1-5.1-3.4-13.8-5.1-19.3-1.7-5.4-3.9-13.2-5-17.1-1-3.9-2.8-10-4-13.5-11.2-33-21.1-59.8-27.1-73.3-2.1-4.6-3.8-8.9-3.8-9.5 0-4.5-42.7-89.9-47.9-95.7-1.1-1.2-2-2.8-2-3.6 0-3.9-35.8-59.5-55.4-86-11.9-16.1-27.4-36.1-28.7-37.3-0.4-0.4-4.5-5.3-9.1-11-4.5-5.7-9.4-11.5-10.7-12.9-1.4-1.3-9.3-10.2-17.6-19.6-20.7-23.4-60.5-62.1-90.5-87.9-4-3.4-10.1-8.7-13.5-11.8-21.1-18.3-94-69.6-114.1-80.2-4.3-2.3-8.1-4.5-8.5-4.9-5.9-6.3-92.7-49.6-121.3-60.6-3.6-1.3-9.3-3.6-12.9-5-3.5-1.5-10.2-4-14.9-5.8-4.7-1.7-9.9-3.7-11.5-4.3-4.9-2.1-36.9-12.5-42.8-13.9-3.1-0.8-11.4-3.1-18.5-5.3-7.1-2.1-15.1-4.4-17.8-5-2.8-0.7-8.9-2.2-13.6-3.3-30.5-7.6-37.4-9-69.2-14.4-7.5-1.2-17.4-2.9-22.1-3.7-4.7-0.8-14.4-2-21.4-2.7-7.1-0.8-18-2-24.3-2.8-28.1-3.6-95-5.3-129.8-3.4zm66.7 1021.4c2.8 8.9 14.1 41.7 15.3 44.1 0.7 1.6 5.2 14.4 9.9 28.5 8.5 25.6 12.7 37.9 27.9 81.4 4.4 12.5 11.1 32.1 15 43.5 15.9 47 21.6 63.6 22.8 66.3 0.7 1.6 5.4 15.4 10.5 30.7 12.2 36.5 33 97.7 43 126.3 4.4 12.5 12.2 35.3 17.5 50.6 5.2 15.3 11.6 34 14.1 41.4 2.6 7.5 10.5 30.3 17.5 50.7 7 20.4 15.5 44.4 18.7 53.5 3.3 9 6.6 18.6 7.4 21.4 1.9 6.6 4 12.7 12 34.9 11.8 33.1 15.1 42.4 25.6 72.8 5.7 16.5 13.7 39.3 17.7 50.6 4.1 11.4 9.6 27.2 12.2 35 5.4 16.1 6.7 19.8 12.4 35.3 2.2 6.1 5.1 14.1 6.3 17.8 1.3 3.8 3.8 10.7 5.5 15.4 1.8 4.7 4.4 11.6 5.8 15.4 1.6 4.5 3.2 6.7 4.5 6.4 1.2-0.2 5-5.9 8.6-12.5 3.5-6.7 10.1-19.2 14.6-27.9 4.6-8.6 10.4-19.5 13-24.2q6.8-12.5 18.5-34.3c2.1-3.9 6.9-12.9 10.7-19.9 3.8-7.1 9.3-17.6 12.4-23.3 3.1-5.7 8.7-16.3 12.4-23.5 3.8-7.2 8.5-16.1 10.5-19.6 8.2-14.7 21.1-38.6 21.1-39.1 0-0.7 19.3-34.8 21.4-37.9 0.8-1.2 2.4-4.2 3.5-6.7 1.2-2.5 2.8-5 3.6-5.5 1.5-0.9 22.8 19.2 58.3 55 109.5 110.2 277.9 278.2 278.9 278.2 0.7 0 10.3-9.4 21.4-21 11.1-11.5 35.7-36.7 54.6-56 58.2-59.2 75.5-77.3 75.9-79.9 0.3-1.6-5.9-8.9-17.1-20.4-9.7-9.8-41-41.8-69.6-71.1-28.7-29.3-95.5-96.8-148.4-150.1-53-53.2-96.3-97.5-96.3-98.3 0-0.8 1.9-2.6 4.2-3.8 2.4-1.3 6.6-3.7 9.3-5.4 2.8-1.7 8.7-5.1 13.2-7.5 4.5-2.4 11.9-6.4 16.4-8.9 4.5-2.4 13.4-7.2 19.6-10.5 6.3-3.4 14.4-7.7 17.9-9.6 3.5-1.9 11.5-6.3 17.8-9.7 6.3-3.3 16.6-9 22.8-12.5 6.3-3.5 17.2-9.4 24.3-13.1 29.3-15.5 50.1-26.8 56.4-30.7 2.7-1.7 10.4-6.1 17.1-9.6 39.5-21.1 57.1-31.3 57.1-33.2 0-1-1.8-2.5-4-3.3-2.1-0.8-14.8-5.5-28.2-10.3-13.3-4.9-30.3-11.1-37.8-13.9-7.4-2.7-19-6.8-25.6-9.1-6.7-2.3-14.1-5-16.5-6.1-2.3-1-8.4-3.3-13.5-5.1-5.1-1.8-11.2-4-13.6-5-2.3-0.9-8.4-3.2-13.5-4.9-5.1-1.8-10.6-3.8-12.1-4.5-1.6-0.7-9-3.5-16.5-6.2-15.4-5.5-34.1-12.4-54.9-20.1-7.8-2.9-22.9-8.4-33.5-12.2-10.6-3.7-25.7-9.2-33.5-12.1-7.9-2.9-16.9-6.2-20-7.3-3.2-1.1-7-2.6-8.6-3.3-1.5-0.7-8-3-14.2-5.1-6.3-2.1-12.7-4.3-14.3-4.9-1.6-0.6-7.7-2.9-13.6-5-5.9-2.2-12-4.5-13.5-5.2-1.6-0.6-5.8-2.2-9.3-3.5-14.1-5.1-28-10.2-31.4-11.6-1.9-0.8-8.4-3.1-14.3-5.2-5.8-2-20.9-7.6-33.5-12.4-12.5-4.8-25.4-9.5-28.5-10.6-17.5-5.9-91.8-33.2-101.3-37.2-2.4-1-5.9-2.2-7.9-2.7-1.9-0.6-4.8-1.5-6.4-2.2-1.6-0.6-7.7-2.9-13.5-5-5.9-2.1-12-4.4-13.6-5.1-1.6-0.7-5.4-2.2-8.6-3.3-3.1-1.1-13.1-4.7-22.1-8-9-3.2-21.5-7.7-27.8-9.9-6.3-2.2-20.4-7.4-31.4-11.5-11-4.1-22.5-8.4-25.7-9.4-3.1-1-10.2-3.6-15.7-5.7-5.5-2-12.2-4.4-14.9-5.1-4.1-1.1-20-6.9-35-12.6-1.6-0.6-7.3-2.8-12.8-4.8-19.1-6.9-38.6-14.1-41.4-15.3-6.1-2.7-15.9-5.9-19.9-6.7-3.5-0.6-4-0.4-3.3 1.9z"/>
	</g>
</svg>