<svg version="1.2" xmlns="http://www.w3.org/2000/svg" viewBox="0 0 2048 2048">
	<title>QuickCTXLogo</title>
	<style>
		.s0 { fill: #3a91a5 } 
	</style>
	<g id="Layer 1">
		<path fill-rule="evenodd" class="s0" d="m976.8 45.7c-6.8 0.3-33.9 2.7-57.1 5-11.7 1.1-22.2 2.6-38.8 5.5-5.5 1-14.3 2.5-19.5 3.4-8.4 1.4-13.4 2.6-35.9 8.2-3.5 0.9-8.8 2.2-11.7 2.9-2.9 0.7-8.5 2.3-12.4 3.5-3.9 1.2-10.2 3.1-14.1 4.2-9.2 2.6-36.7 11.6-41.2 13.5-2 0.9-5.2 2.2-7.3 3.1-2 0.9-4.2 1.6-4.8 1.6-1 0-4.3 1.3-16.2 6.4-1.9 0.9-7.2 3-11.7 4.8-4.5 1.7-9 3.6-10 4.1-45.3 22.2-60 29.8-79.5 41.3-23.4 13.6-54.7 34.1-68.3 44.6-25.2 19.4-37 28.8-41.7 33-1.1 1-5.1 4.4-9 7.7-37.1 31.1-88.6 86.2-117.7 125.9-13 17.9-26 36.6-30.5 44.2-2.5 4.2-6.5 10.6-8.9 14.1-5.6 8.4-16.6 27.2-20.3 34.7-1.5 3.3-4.1 8.1-5.6 10.6-1.4 2.6-6.2 11.9-10.6 20.6-6.8 13.7-10.6 22.1-20.7 46-1 2.2-2.5 5.4-3.3 7-0.8 1.6-3.8 9.3-6.5 17.1-2.8 7.8-5.4 14.9-5.9 15.9-0.5 1-1.3 3.7-1.8 5.9-0.5 2.3-1.3 4.6-1.8 5.3-1.2 1.6-7.1 20.5-7.1 22.9 0 1-0.4 2.4-1 3-0.6 0.6-2 4.6-3.1 8.8-6.1 23.4-11.3 44.9-12.3 50.6-0.6 3.6-2.1 12.1-3.5 18.9-1.3 6.8-3 16.3-3.6 21.1-0.7 4.9-2 14.2-2.9 20.6-0.9 6.5-2.3 19-3 27.7-0.7 8.8-1.8 20.8-2.4 26.8-1.5 14.1-1.5 66.4 0 81.2 0.6 6.3 1.7 17.6 2.3 25 2.2 23.9 8.4 68.6 11.9 84.8 0.6 2.9 2 9.5 3 14.7 1.1 5.2 2.7 12.4 3.7 15.9 0.9 3.6 2.3 9.4 3.2 13 1.4 5.9 3.2 12.3 8.3 29.4 7.3 24.7 16.4 51 18.5 53.5 0.5 0.6 0.9 1.9 0.9 2.8 0 1.6 6.6 17.2 13.8 32.8 2.1 4.7 3.9 8.9 3.9 9.3 0 1.5 24.4 49.4 32.9 64.6 3.5 6.1 19.5 32.7 24.2 40.1 7 11 34.6 49.2 41.7 57.7 1.7 2 5.2 6.2 7.7 9.4 4.5 5.4 13.6 16.2 23 27.1 6.9 7.9 50.6 51.3 61.2 60.7 31.5 28 66 54.8 95.4 74.2 19.2 12.7 32.5 21 33.2 21 0.4 0 3.5 1.9 7 4.2 3.4 2.2 6.6 4.1 7.2 4.1 0.5 0 3.1 1.4 5.9 3.1 6.7 4.3 52.9 27.2 66.8 33.2 15.7 6.7 44.5 17.8 46.3 17.8 0.8 0 2 0.5 2.6 1.1 0.6 0.5 5.6 2.5 11.1 4.2 5.5 1.8 11.6 3.9 13.5 4.8 2 0.8 8.1 2.7 13.6 4.1 5.5 1.4 11 3 12.3 3.5 5.3 2.1 52.3 13.7 62.4 15.3 3.3 0.5 11.7 2.1 18.9 3.4 12 2.3 25.5 4.2 51.8 7.1 65 7.2 139.9 5 204.2-6 11.3-2 23.1-3.9 26.2-4.4 3.1-0.5 6.3-1.5 7-2.2 1.4-1.4-6.5-26-22.6-70.9-3.4-9.4-6.8-19.2-7.7-21.8-2.1-6.4-10.9-31.1-17-47.7-2.7-7.4-6-16.7-7.3-20.6-1.4-3.8-3.5-9.9-4.8-13.5-3.2-8.8-11.4-32.3-11.5-32.7 0-0.7-10 0-20.6 1.5-22.9 3.3-67.6 4.7-96.3 3.1-31.7-1.7-63.9-5.8-85.5-11-3-0.7-7.2-1.6-9.5-2.1-8.2-1.7-37.1-9.5-41.2-11-2.2-0.9-7.3-2.6-11.2-3.8-12.5-3.8-42.3-15.7-59.4-23.7-14.7-6.8-21.1-10.2-53.6-28.5-2.6-1.5-6.4-4-8.4-5.5-2.1-1.6-4.1-2.8-4.4-2.8-0.4 0-4.2-2.4-8.4-5.3-4.2-3-11.2-7.8-15.6-10.8-12.4-8.6-35.6-26.8-44.9-35.2-11.4-10.1-23.3-21.3-28.9-27.1-13.2-13.4-25.1-26.2-30.7-32.8-3.2-3.8-7.1-8.3-8.6-10-3.1-3.4-18.9-24.4-28-37.2-12.6-17.7-28.6-44.5-41.7-70-9.5-18.4-22.5-50-29.5-71.3-13.2-40.1-19.1-67.5-25.4-117.7-3-24-3-98.7 0-123 5.7-46.4 14.3-84.8 26.8-120.1 9.6-27.1 10-28.3 14.7-38.8 4.8-11.1 22.9-48.1 26.1-53.6 1.2-1.9 3.7-6.2 5.6-9.4 1.9-3.3 4.6-7.8 5.9-10 7.1-12.3 15.8-24.8 34.6-50.1 18.7-25.1 61.5-69.9 85.6-89.7 2.5-2.1 8.3-6.9 12.9-10.6 4.5-3.8 10.6-8.5 13.5-10.4 2.9-2 8.2-5.6 11.7-8.2 17.1-12 26.9-18.2 45.9-29.2 11.4-6.6 23.3-13.2 26.6-14.8 3.2-1.5 9-4.2 12.9-6.1 21.5-10.1 35.5-15.7 57.8-23.2 45.1-15 78.1-22.6 115.8-26.7 37.8-4 46.1-4.4 78.4-3.8 48.8 0.8 76.1 4.4 128.8 16.7 8.2 1.9 28.3 8.1 40.7 12.4 5.1 1.9 11 3.8 12.9 4.2 1.9 0.5 4.1 1.2 4.7 1.6 0.7 0.5 4.4 2.1 8.3 3.6 9.9 3.8 25.7 11 47.6 21.6 14.4 6.9 71.5 41.5 75.4 45.5 0.3 0.4 5.1 4.1 10.6 8.2 39.7 30 85.7 76.4 112.4 113.6 1.3 1.8 4.7 6.5 7.7 10.5 9 12.3 19.1 28.1 29.6 46.7 7.4 12.9 26.9 50.9 26.9 52.4 0 0.3 1.1 3.1 2.4 6.2 1.4 3 3.2 7.1 4.1 9 3.2 7.2 17.4 48.3 19.3 55.6 0.6 2.5 2.2 8.7 3.6 13.9 4.7 17.7 11.7 54.1 14.3 74.2 2.4 18 2.6 25 2.6 71.2 0 32.4-0.5 54.7-1.3 60.6-0.8 5.2-1.9 13.7-2.6 18.9-0.7 5.1-1.8 11.8-2.4 14.7-0.7 2.9-2.8 13-4.7 22.3-1.9 9.4-3.9 19.2-4.6 21.8-1.4 5.6-0.5 7 5.6 8.9 2.3 0.7 5.3 1.7 6.6 2.3 9.6 3.9 28 10.6 29.2 10.6 0.9 0 2.1 0.5 2.7 1 0.6 0.6 5.9 2.8 11.7 4.9 5.8 2.1 16.9 6.1 24.7 8.9 13.6 4.8 25.2 9.1 46.5 17 5.5 2 14.8 5.3 20.6 7.3 5.8 1.9 11.7 4 13 4.5 1.3 0.5 6.3 2.4 11.2 4.1 4.8 1.8 13.5 5 19.2 7.2 5.7 2.2 10.9 4 11.4 4 1.7 0 5.5-9.4 8.2-20.2 1.4-5.4 4-15.9 5.9-23.4 1.9-7.4 4-16.4 4.6-20 0.5-3.6 2.4-13.6 4-22.4 1.7-8.7 3.6-21 4.3-27.2 0.6-6.3 1.4-12.1 1.8-13 0.3-0.9 1.6-16.4 3-34.5 2.1-27.7 2.5-39.1 1.9-71.3-0.5-34.7-2.6-67.8-5.4-84.7-0.6-3.6-1.4-9.7-1.8-13.7-0.4-4-2.1-14-3.7-22.4-1.7-8.3-3.7-18.8-4.6-23.4-0.8-4.5-2.7-12.7-4.1-18.2-1.3-5.5-3.2-13.5-4.1-17.7-0.9-4.2-2.8-11.3-4.2-15.9-1.4-4.5-3.2-10.9-4.1-14.1-0.9-3.2-2.4-8.3-3.4-11.2-9.2-27.2-17.4-49.3-22.3-60.5-1.7-3.8-3.1-7.3-3.1-7.8 0-3.7-35.3-74.1-39.6-78.9-0.9-1.1-1.6-2.4-1.6-3 0-3.3-29.6-49.1-45.7-70.9-9.9-13.3-22.6-29.9-23.7-30.8-0.4-0.3-3.7-4.4-7.5-9.1-3.7-4.7-7.7-9.5-8.9-10.6-1.1-1.2-7.7-8.4-14.5-16.2-17-19.4-49.9-51.3-74.6-72.6-3.3-2.8-8.4-7.2-11.2-9.7-17.4-15.1-77.6-57.4-94.1-66.2-3.6-1.8-6.7-3.7-7.1-4-4.8-5.2-76.5-41-100-50-3-1.1-7.7-3-10.6-4.2-2.9-1.1-8.5-3.3-12.4-4.7-3.9-1.4-8.1-3.1-9.4-3.6-4.1-1.7-30.5-10.3-35.4-11.5-2.5-0.6-9.4-2.5-15.2-4.3-5.9-1.8-12.5-3.6-14.7-4.2-2.3-0.5-7.3-1.7-11.2-2.7-25.2-6.3-30.9-7.4-57.1-11.8-6.2-1-14.4-2.4-18.3-3.1-3.9-0.6-11.8-1.7-17.6-2.3-5.9-0.6-14.9-1.6-20.1-2.3-23.2-2.9-78.4-4.3-107.1-2.7zm55.1 842.8c2.2 7.2 11.6 34.3 12.6 36.3 0.6 1.3 4.3 11.9 8.2 23.6 7 21.1 10.5 31.2 23 67.1 3.6 10.3 9.1 26.5 12.3 35.9 13.2 38.7 17.9 52.5 18.9 54.7 0.5 1.3 4.4 12.7 8.7 25.3 10 30.2 27.2 80.6 35.4 104.2 3.6 10.4 10.1 29.2 14.4 41.8 4.3 12.6 9.6 28 11.7 34.1 2.1 6.2 8.6 25 14.4 41.8 5.8 16.9 12.8 36.7 15.5 44.2 2.7 7.4 5.4 15.4 6 17.6 1.6 5.5 3.3 10.5 9.9 28.9 9.8 27.3 12.5 34.9 21.2 60 4.7 13.6 11.2 32.4 14.6 41.8 3.4 9.4 7.9 22.4 10.1 28.9 4.4 13.3 5.5 16.3 10.2 29.1 1.8 5 4.2 11.6 5.2 14.7 1 3.1 3.1 8.8 4.6 12.7 1.4 3.9 3.5 9.6 4.7 12.7 1.3 3.7 2.6 5.5 3.8 5.3 0.9-0.2 4.1-4.9 7-10.4 2.9-5.5 8.3-15.8 12.1-22.9 3.7-7.2 8.5-16.2 10.7-20q5.6-10.4 15.3-28.3c1.7-3.2 5.7-10.7 8.8-16.5 3.1-5.8 7.7-14.4 10.2-19.2 2.5-4.7 7.2-13.4 10.3-19.4 3.1-5.9 7-13.2 8.6-16.1 6.7-12.1 17.4-31.9 17.4-32.3 0-0.5 15.9-28.7 17.7-31.3 0.6-1 1.9-3.4 2.9-5.5 0.9-2.1 2.3-4.1 3-4.5 1.2-0.8 18.7 15.8 48 45.3 90.4 91 229.3 229.6 230.1 229.6 0.6 0 8.6-7.8 17.7-17.3 9.2-9.6 29.5-30.4 45.1-46.2 48-48.9 62.2-63.8 62.6-66 0.2-1.3-4.9-7.3-14.1-16.8-8-8.1-33.8-34.5-57.5-58.7-23.6-24.1-78.7-79.8-122.4-123.8-43.7-43.9-79.5-80.4-79.5-81.1 0-0.7 1.6-2.1 3.6-3.2 1.9-1 5.3-3 7.6-4.4 2.3-1.4 7.2-4.2 10.9-6.2 3.7-2 9.8-5.3 13.5-7.3 3.8-2.1 11-6 16.2-8.7 5.2-2.8 11.8-6.4 14.7-8 2.9-1.5 9.6-5.1 14.8-7.9 5.1-2.8 13.6-7.4 18.8-10.3 5.2-2.9 14.2-7.8 20-10.9 24.2-12.7 41.4-22.1 46.5-25.3 2.3-1.4 8.6-5 14.1-7.9 32.6-17.4 47.1-25.9 47.1-27.4 0-0.8-1.4-2.1-3.2-2.7-1.8-0.7-12.3-4.5-23.3-8.6-11-4-25-9.1-31.2-11.4-6.1-2.2-15.7-5.6-21.2-7.5-5.5-1.9-11.6-4.2-13.5-5-1.9-0.9-7-2.8-11.2-4.2-4.2-1.5-9.2-3.3-11.2-4.2-1.9-0.8-6.9-2.6-11.1-4.1-4.3-1.4-8.8-3.1-10.1-3.7-1.2-0.5-7.3-2.8-13.5-5-12.7-4.6-28.2-10.2-45.3-16.6-6.5-2.4-18.9-7-27.7-10.1-8.7-3.1-21.2-7.6-27.6-10-6.5-2.4-13.9-5.1-16.5-6-2.6-0.9-5.8-2.1-7.1-2.7-1.3-0.6-6.6-2.5-11.8-4.2-5.1-1.7-10.4-3.6-11.7-4.1-1.3-0.5-6.4-2.4-11.2-4.1-4.9-1.8-9.9-3.7-11.2-4.3-1.3-0.5-4.7-1.8-7.7-2.9-11.6-4.2-23.1-8.4-25.9-9.6-1.6-0.6-6.9-2.5-11.7-4.2-4.9-1.7-17.3-6.3-27.7-10.2-10.4-4-21-7.9-23.5-8.8-14.5-4.9-75.7-27.4-83.6-30.7-2-0.8-4.9-1.8-6.5-2.3-1.6-0.4-4-1.2-5.3-1.7-1.3-0.5-6.3-2.4-11.2-4.2-4.8-1.7-9.9-3.6-11.2-4.2-1.3-0.6-4.4-1.8-7-2.7-2.6-0.9-10.8-3.9-18.3-6.6-7.4-2.7-17.8-6.4-22.9-8.2-5.2-1.8-16.9-6.1-25.9-9.5-9.1-3.4-18.6-6.9-21.2-7.7-2.6-0.9-8.4-3-13-4.7-4.5-1.7-10.1-3.6-12.3-4.3-3.4-0.9-16.5-5.6-28.9-10.4-1.3-0.5-6-2.2-10.6-3.9-15.7-5.7-31.8-11.6-34.1-12.7-5-2.1-13.1-4.8-16.4-5.4-2.9-0.6-3.3-0.4-2.7 1.6z"/>
		<path id="QuickCTX" class="s0" aria-label="QuickCTX"  d="m648.9 1973.3l-20.2 14.7-62.6-81.9 21-13.9zm-72.7-9q-17.4 0-32.3-6.4-14.6-6.4-25.7-17.7-10.9-11.5-17-26.9-5.9-15.6-5.9-34 0-18.4 5.9-33.7 6.1-15.6 17-26.9 11.1-11.6 25.7-17.9 14.9-6.4 32.3-6.4 17.5 0 32.1 6.4 14.9 6.3 25.8 17.9 11 11.6 16.9 27.1 6.2 15.4 6.2 33.5 0 18.2-6.2 33.8-5.9 15.3-16.9 26.9-10.9 11.5-25.8 17.9-14.6 6.4-32.1 6.4zm0-24.8q12.1 0 22-4.5 10.1-4.5 17.4-12.5 7.4-8.2 11.4-19.1 4.2-11.1 4.2-24.1 0-12.9-4.2-23.8-4-11.1-11.4-19.1-7.3-8.3-17.4-12.8-9.9-4.4-22-4.4-12 0-22.1 4.4-10 4.5-17.5 12.6-7.3 8-11.3 19.1-4 10.8-4 24 0 13 4 24.1 4 11.1 11.3 19.1 7.5 8 17.5 12.5 10.1 4.5 22.1 4.5zm152.7 24.8q-13.2 0-23.1-6.1-9.7-6.2-15.1-17.3-5.2-11.1-5.2-26.4v-76.5h24.3v69.9q0 10.8 3.3 18.9 3.5 7.8 9.9 12 6.6 4.2 15.8 4.2 6.9 0 12.5-2.1 5.7-2.3 9.7-6.3 4.3-4.1 6.6-9.7 2.4-5.7 2.4-12.3v-74.6h24.3v123.9h-24.3v-25.9l4.2-2.9q-2.8 8.8-9.7 15.8-6.6 7.1-15.8 11.4-9.2 4-19.8 4zm127.7-2.4h-24.3v-123.9h24.3zm-12.5-151.2q-7.8 0-12.1-4-4.2-4-4.2-11.4 0-6.8 4.2-11 4.5-4.3 12.1-4.3 7.8 0 12 4 4.2 4 4.2 11.3 0 6.9-4.4 11.1-4.3 4.3-11.8 4.3zm102.4 153.6q-17.2 0-30.9-8.5-13.5-8.5-21.5-23.1-7.8-14.6-7.8-32.8 0-18.2 7.8-32.8 8-14.6 21.5-23.1 13.7-8.5 30.9-8.5 16.5 0 29.9 6.8 13.7 6.6 20.8 18.2l-13.4 16.5q-3.8-5.4-9.7-9.9-5.9-4.5-12.5-7.1-6.6-2.6-12.8-2.6-11.3 0-20.3 5.7-8.7 5.4-13.9 15.1-5.2 9.6-5.2 21.7 0 12 5.5 21.7 5.4 9.4 14.4 15.1 8.9 5.7 19.8 5.7 6.3 0 12.2-2.2 6.2-2.1 11.8-6.3 5.7-4.3 10.7-10.4l13.4 16.5q-7.5 10.6-21.7 17.5-13.9 6.8-29 6.8zm186.6-126.2l-90.8 85.1-1.2-26.4 59.2-58.7zm-88.7 123.8h-24.3v-174.6h24.3zm90.4 0h-31.2l-46.7-54.5 17.2-15.8zm97.5 2.4q-18.2 0-33.5-6.2-15.1-6.3-26.4-17.7-11.1-11.5-17.3-27.1-6.1-15.6-6.1-34 0-18.4 5.9-33.5 5.9-15.3 16.7-26.7 11.1-11.3 25.8-17.4 14.8-6.2 32.5-6.2 11.1 0 22.5 3.8 11.3 3.6 21 9.9 9.6 6.4 16 14.7l-8.7 9.2q-5.2-7.6-13.5-13.3-8.2-5.8-17.9-9.2-9.7-3.3-19.4-3.3-14.8 0-27.6 5.5-12.5 5.2-21.7 14.8-9 9.7-14.1 22.9-5 13.2-5 28.8 0 15.8 5.2 29.3 5.2 13.4 14.6 23.3 9.7 9.7 22.4 15.1 13 5.5 28.6 5.5 9.4 0 18.6-2.6 9.5-2.9 17-7.6 7.6-4.9 12.1-11.1l6.3 10.4q-5.6 6.6-14.6 11.8-8.7 5-19.1 8-10.2 2.9-20.3 2.9zm130-2.4h-11.8v-153.4h-48.4v-11.8h110.2v11.8h-50zm196.8 0h-14.6l-58.1-80.7-61.1-84.5h14.6l52.4 73.2zm-121.5 0h-13.4l61.8-88.3 7.5 8.5zm119.2-165.1l-60.9 85.4-6.6-8.5 54-76.9z"/>
	</g>
</svg>